# xmcd CD database file
#
# Track frame offsets:
#	150
#	6927
#	42777
#	92254
#	165393
#	180500
#	192181
#	222505
#
# Disc length: 3535 seconds
#
# Revision: 0
# Processed by: cddbd v1.5.1PL0 Copyright (c) Steve Scherf et al.
# Submitted via: CDex 1.51
#
DISCID=5a0dcd08
DTITLE=Trio! (Bela Fleck, Stanley Clarke, Jean-Luc Ponty) - At Frederick Meijer Gardens [CD1]
DYEAR=2005
DGENRE=Jazz
TTITLE0=intro
TTITLE1=South
TTITLE2=Fonky Punty
TTITLE3=Song to John
TTITLE4=JLP solo
TTITLE5=JLP solo #2
TTITLE6=JLP solo #3
TTITLE7=Storm Warning
EXTD=YEAR: 2005
EXTT0=
EXTT1=
EXTT2=
EXTT3=
EXTT4=
EXTT5=
EXTT6=
EXTT7=
PLAYORDER=
